<svg xmlns="http://www.w3.org/2000/svg" width="225" height="225" shape-rendering="geometricPrecision" image-rendering="optimizeQuality" fill-rule="evenodd" xmlns:v="https://vecta.io/nano"><path fill="#a09e9f" d="M132.5 69.5h-4c-.165 3.35.002 6.683.5 10 .75.626 1.584 1.126 2.5 1.5a16.57 16.57 0 0 0-4 2.5l-1-2c.993-8.484 1.326-17.151 1-26a306.73 306.73 0 0 0-22-2c-.331 7.696.003 15.362 1 23 1.836.528 3.503 1.194 5 2-2.921.217-5.587-.449-8-2 1.275-3.104 1.275-6.104 0-9a75.46 75.46 0 0 0 1-16l23 3a49.87 49.87 0 0 1 1 14c1.599-.268 2.932.066 4 1z" opacity=".824"/><path fill="#fefefe" d="M126.5 81.5c-4.731-1.76-9.731-2.76-15-3-1.497-.806-3.164-1.472-5-2-.997-7.638-1.331-15.304-1-23a306.73 306.73 0 0 1 22 2c.326 8.849-.007 17.516-1 26z"/><path fill="#171717" d="M103.5 67.5c1.275 2.896 1.275 5.896 0 9-4.262.693-4.595 1.526-1 2.5l22 5.5c1.084-.185 2.084-.518 3-1a16.57 16.57 0 0 1 4-2.5c-.916-.374-1.75-.874-2.5-1.5-.498-3.317-.665-6.65-.5-10h4c8.802.69 17.469 2.023 26 4a60.93 60.93 0 0 1-.5 11l-1-9c-2.326 1.566-4.492 3.232-6.5 5-1.105 1.1-2.438 1.767-4 2-4.738-.758-8.738.575-12 4a7.11 7.11 0 0 0 5 1v1l-10 7-3 2c-1.311 4.484-1.311 8.817 0 13v1c-.617.111-1.117.444-1.5 1a651.42 651.42 0 0 0-1.5 51c-.365 4.594-1.365 8.927-3 13l-2-1c.6-1.4 1.6-2.4 3-3 .319-4.863-.014-9.53-1-14-.803-15.623-1.303-31.289-1.5-47-3.054-1.623-2.554-2.29 1.5-2-.142-4.045-.142-7.879 0-11.5a41.92 41.92 0 0 0-12-4.5l-8-2c-2.921-1.196-5.921-2.196-9-3-2.394-.515-4.728-1.181-7-2a397.88 397.88 0 0 0-19-5v-1c6.027-2.901 12.361-5.234 19-7 1.236 1.543 2.902 2.543 5 3l7-3.5c-1.071-.852-2.071-1.685-3-2.5 3.199-1.399 6.532-2.399 10-3z"/><path fill="#dadada" d="M93.5 70.5l3 2.5-7 3.5c-2.098-.457-3.764-1.457-5-3 2.584-1.972 5.584-2.972 9-3z"/><path fill="#c4c3c3" d="M103.5 76.5c2.413 1.551 5.079 2.217 8 2 5.269.24 10.269 1.24 15 3l1 2c-.916.482-1.916.815-3 1l-22-5.5c-3.595-.974-3.262-1.807 1-2.5z"/><path fill="#f4f4f4" d="M146.5 82.5v22c-1.889 1.104-3.555 2.437-5 4l-2-21a7.11 7.11 0 0 1-5-1c3.262-3.425 7.262-4.758 12-4z"/><path fill="#dad9d9" d="M65.5 81.5a397.88 397.88 0 0 1 19 5l-3 2.5c.833 2.081.833 4.248 0 6.5h-6c-2.731-1.698-5.731-3.031-9-4a25.87 25.87 0 0 1-1-10z"/><path fill="#a4a2a3" d="M84.5 86.5c2.272.819 4.606 1.485 7 2-.263 4.1.07 8.1 1 12-2.614-1.045-5.28-1.545-8-1.5l7 3a81.82 81.82 0 0 0-3 2.5c-2.827-.608-5.493-1.608-8-3a4.85 4.85 0 0 0-1-4c-1.525-.494-2.859-1.161-4-2h6c.833-2.252.833-4.419 0-6.5 1.071-.852 2.071-1.685 3-2.5z"/><path fill="#807e7f" d="M91.5 88.5c3.079.804 6.079 1.804 9 3-.751 3.247-1.251 6.581-1.5 10-2.188.682-4.355.348-6.5-1-.93-3.9-1.263-7.9-1-12z"/><path fill="#232323" d="M158.5 73.5a18.5 18.5 0 0 1 0 12c-.991 6.479-1.324 13.146-1 20v2 5 1 3c15.825.996 31.825 1.33 48 1v5h-49v10c.908 1.952.741 3.952-.5 6a208.31 208.31 0 0 1-4.5 5l-2-51.5c3.59-3.194 3.923-7.028 1-11.5 2.008-1.768 4.174-3.434 6.5-5l1 9a60.93 60.93 0 0 0 .5-11z"/><path fill="#5f5d5e" d="M100.5 91.5l8 2c-.93 3.9-1.263 7.9-1 12-1.052-.149-2.052.017-3 .5 2.594 1.32 3.26 3.153 2 5.5l-18-7a81.82 81.82 0 0 1 3-2.5l-7-3c2.72-.045 5.386.455 8 1.5 2.145 1.348 4.312 1.682 6.5 1 .249-3.419.749-6.753 1.5-10z"/><path fill="#3f3d3e" d="M150.5 80.5c2.923 4.472 2.59 8.306-1 11.5l2 51.5a3 3 0 0 1-2 2 418.36 418.36 0 0 1-3-41v-22c1.562-.233 2.895-.9 4-2z"/><path fill="#898888" d="M65.5 80.5v1a25.87 25.87 0 0 0 1 10c3.269.969 6.269 2.302 9 4l-9-2c.326 8.184-.008 16.184-1 24h-1v-1-3c.667 0 1-.333 1-1 .284-1.915-.049-3.581-1-5v-4c.951-1.419 1.284-3.085 1-5v-1c-1.082-5.823-1.082-11.49 0-17z" opacity=".859"/><path fill="#739c68" d="M65.5 97.5v1h-47v5c-.961-1.765-1.295-3.765-1-6h48z" opacity=".706"/><path fill="#eaeaea" d="M129.5 95.5c1.667 2.761 2.667 5.928 3 9.5-1.896 2.068-3.896 3.901-6 5.5-1.311-4.183-1.311-8.516 0-13l3-2z"/><path fill="#458b2d" d="M65.5 98.5c.284 1.915-.049 3.581-1 5h-46v-5h47z"/><path fill="#eceeec" d="M80.5 101.5c2.507 1.392 5.173 2.392 8 3l18 7a53.76 53.76 0 0 0 8 2v37l-12-4c-5.016-3.174-10.349-5.841-16-8-3.66-2.497-7.66-4.497-12-6a136.63 136.63 0 0 1 0-33 31.69 31.69 0 0 0 6 2z"/><path fill="#689455" d="M158.5 85.5v12h48v6c-16.573-.629-32.906.038-49 2-.324-6.854.009-13.521 1-20z" opacity=".955"/><path fill="#418d29" d="M158.5 98.5h47v4h-47v-4z"/><path fill="#1d1c1b" d="M76.5 103.5a20.69 20.69 0 0 0 5 1 392.4 392.4 0 0 1-.5 28l-4-2c-.5-8.994-.666-17.994-.5-27z"/><path fill="#b1aeb0" d="M139.5 88.5c.324 4.055-.009 8.055-1 12-3.925 3.116-3.759 3.45.5 1l.5 1.5c-1.32 18.64-1.32 37.14 0 55.5-3.109 3.897-6.443 7.564-10 11 .011-1.517.677-2.684 2-3.5l-2-54.5c-1.027-1.291-2.027-1.291-3 0v-1c2.104-1.599 4.104-3.432 6-5.5-.333-3.572-1.333-6.739-3-9.5l10-7z"/><path fill="#7d85a6" d="M86.5 107.5c-.993 8.818-1.327 17.818-1 27-1.322-9.175-1.322-18.508 0-28 .607.124.94.457 1 1z"/><path fill="#0a2777" d="M18.5 107.5h46c.951 1.419 1.284 3.085 1 5h-47v-5z"/><path fill="#5e5c5d" d="M146.5 104.5a418.36 418.36 0 0 0 3 41 35.06 35.06 0 0 1-6 8l-2-45c1.445-1.563 3.111-2.896 5-4z"/><path fill="#0a2978" d="M157.5 107.5h48v5h-48v-5z"/><path fill="#7f7d7e" d="M139.5 87.5l2 21 2 45-4 5c-1.32-18.36-1.32-36.86 0-55.5l-.5-1.5c-4.259 2.45-4.425 2.116-.5-1 .991-3.945 1.324-7.945 1-12v-1z"/><path fill="#2a2929" d="M108.5 93.5a41.92 41.92 0 0 1 12 4.5c-.142 3.621-.142 7.455 0 11.5-4.054-.29-4.554.377-1.5 2 .197 15.711.697 31.377 1.5 47l-18-9c1.333-1 1.333-2 0-3l12 4v-37a53.76 53.76 0 0 1-8-2c1.26-2.347.594-4.18-2-5.5.948-.483 1.948-.649 3-.5-.263-4.1.07-8.1 1-12z"/><path fill="#636c89" d="M18.5 107.5v5h47c0 .667-.333 1-1 1h-47c-.295-2.235.039-4.235 1-6z" opacity=".634"/><path fill="#dadada" d="M129.5 169.5c-.943 2.609-2.61 4.609-5 6-.983-3.798-1.317-7.798-1-12a651.42 651.42 0 0 1 1.5-51c.383-.556.883-.889 1.5-1 .973-1.291 1.973-1.291 3 0l2 54.5c-1.323.816-1.989 1.983-2 3.5z"/><path fill="#374980" d="M205.5 107.5c.961 1.765 1.295 3.765 1 6h-49v-1h48v-5z" opacity=".832"/><path fill="#428a28" d="M100.5 112.5c8.988.964 12.988 5.964 12 15-1.43.079-2.764-.254-4-1-3.724-11.129-5.391-10.629-5 1.5l.5 9.5c.308.808.808 1.475 1.5 2 1.488-1.649 2.488-3.649 3-6 1.236.746 2.57 1.079 4 1 1.308 11.563-2.525 13.896-11.5 7l-2-4c-.667-7.667-.667-15.333 0-23 .717-.544 1.217-1.211 1.5-2z"/><path d="M64.5 117.5h1v5h-47v-5h46z"/><path fill="#262623" d="M19.5 118.5h45v3h-45v-3z"/><path fill="#262524" d="M156.5 118.5h48v3h-48v-3z"/><path fill="#0f2879" d="M86.5 107.5c3.155 1.576 6.488 2.576 10 3a9.86 9.86 0 0 1-1 6c-1.823-1.247-3.823-1.914-6-2-1.017 4.281.65 6.614 5 7 1.333 1.667 1.333 3.333 0 5-1.236-.746-2.57-1.079-4-1-1.362 5.287.638 7.954 6 8 .162 2.027-.004 4.027-.5 6-3.602-1.552-7.102-3.219-10.5-5-.327-9.182.007-18.182 1-27z"/><path fill="#c6c5c5" d="M64.5 116.5v1h-46v5h47v22c-.991-6.813-1.325-13.813-1-21h-47v-7h47z" opacity=".206"/><path fill="#a8a7a8" d="M157.5 116.5h49v7h-49c.31 3.213-.023 6.213-1 9v-10h49v-5c-16.175.33-32.175-.004-48-1z" opacity=".535"/><path fill="#e6e5e5" d="M75.5 95.5c1.141.839 2.475 1.506 4 2a4.85 4.85 0 0 1 1 4 31.69 31.69 0 0 1-6-2 136.63 136.63 0 0 0 0 33c4.34 1.503 8.34 3.503 12 6-1.207 1.38-.873 2.547 1 3.5l15 7.5 18 9c.986 4.47 1.319 9.137 1 14-7.575-3.121-14.908-6.787-22-11-6.114-4.733-12.781-7.733-20-9-5-2.164-9.667-4.831-14-8v-22-5c.992-7.816 1.326-15.816 1-24l9 2z"/><path fill="#2f2e2e" d="M77.5 139.5c1.256-.039 2.256.461 3 1.5-1.498.585-2.498.085-3-1.5z"/><path fill="#222" d="M76.5 138.5c.667 0 1 .333 1 1-1.025.397-1.192 1.063-.5 2 4.599 2.41 4.432 3.41-.5 3 5.145 4.705 4.812 5.038-1 1-.302-2.559.032-4.893 1-7z"/><path fill="#858485" d="M76.5 138.5c-.968 2.107-1.302 4.441-1 7-1.21-.432-2.21-1.099-3-2 1.536-1.525 2.536-3.525 3-6 .607.124.94.457 1 1z"/><path fill="#161516" d="M72.5 143.5c-1.083-.039-2.083-.373-3-1-1.152-2.606-1.318-5.273-.5-8 .033 3.572 1.2 6.572 3.5 9z"/><path fill="#737172" d="M86.5 138.5c5.651 2.159 10.984 4.826 16 8 1.333 1 1.333 2 0 3l-15-7.5c-1.873-.953-2.207-2.12-1-3.5z"/><path fill="#535353" d="M86.5 148.5c-1.812-.848-3.312-.848-4.5 0l.5-6c3.024-.136 4.524 1.198 4.5 4l-3-3-.5 1 3 4z"/><path fill="#292829" d="M93.5 148.5a3 3 0 0 1 2 2v5c-2.029.772-3.863.106-5.5-2a24.94 24.94 0 0 1-.5-7c1.88-.271 3.213.396 4 2z"/><path fill="#030303" d="M86.5 148.5c.904.709 1.237 1.709 1 3-1.052.149-2.052-.017-3-.5 1.256-.417 1.923-1.25 2-2.5z"/><path fill="#f2f2f2" d="M93.5 148.5c1.019 2.04 1.019 4.04 0 6-2.478-1.222-3.478-3.222-3-6h3z"/><path fill="#7a7879" d="M99.5 151.5h-1c-1.478.948-2.478 2.281-3 4v-5c1.501-.943 2.835-.609 4 1z"/><path fill="#010101" d="M98.5 151.5h1l3 1.5c-1.599 1.786-2.433 3.953-2.5 6.5-.272-2.754-.772-5.421-1.5-8z"/><path fill="#151415" d="M107.5 159.5c-1.431.381-2.264 1.381-2.5 3-1.199-8.032-.366-9.032 2.5-3z"/><path fill="#8a8889" d="M79.5 152.5c7.219 1.267 13.886 4.267 20 9-1.374.292-2.707.625-4 1-5.622-2.972-10.955-6.305-16-10z" opacity=".886"/><path fill="#363435" d="M107.5 159.5c.768-.763 1.268-1.763 1.5-3 1.557 2.794 1.89 5.794 1 9a21.57 21.57 0 0 1-2.5-6z"/><path fill="#3b3a3a" d="M112.5 159.5c5.104.791 7.104 3.791 6 9-5.748-.494-7.748-3.494-6-9z"/><path fill="#eee" d="M113.5 161.5c3.887.836 4.72 2.836 2.5 6-2.039-1.478-2.872-3.478-2.5-6z"/><path fill="#4a4849" d="M95.5 162.5l4-1c7.092 4.213 14.425 7.879 22 11-1.4.6-2.4 1.6-3 3-7.829-4.08-15.496-8.413-23-13z"/><path fill="#5b595a" d="M123.5 163.5c-.317 4.202.017 8.202 1 12-.636 3.659-1.969 3.993-4 1 1.635-4.073 2.635-8.406 3-13z" opacity=".937"/></svg>